<svg xmlns="http://www.w3.org/2000/svg" viewBox="0 0 25.75 24.98">
  <defs>
    <style>
      .cls-1, .cls-2 {
        fill: #003254;
      }

      .cls-2 {
        fill-rule: evenodd;
      }
    </style>
  </defs>
  <g id="Layer_2" data-name="Layer 2">
    <g id="Layer_1-2" data-name="Layer 1">
      <g id="icon-blue">
        <circle class="cls-1" cx="23.46" cy="12.49" r="2.29"/>
        <path class="cls-2" d="M24.1,8.73H22.68V2.22H11A1.53,1.53,0,0,1,9.65,3a1.51,1.51,0,0,1-1.34-.81H2.16V14.34a1.51,1.51,0,0,1,0,2.75v5.66H14.6A1.53,1.53,0,0,1,16,21.94a1.51,1.51,0,0,1,1.34.81h5.39V16.22H24.1V23a1.21,1.21,0,0,1-1.21,1.21h-5.6a1.52,1.52,0,0,1-2.69,0H2A1.21,1.21,0,0,1,.74,23V17a1.52,1.52,0,0,1,0-2.61V2A1.21,1.21,0,0,1,2,.81H8.31A1.51,1.51,0,0,1,11,.81h11.9A1.21,1.21,0,0,1,24.1,2Z"/>
        <rect class="cls-1" x="5.67" y="6.24" width="2.36" height="12.42"/>
        <path class="cls-2" d="M14.74,12.16a2.21,2.21,0,0,0,1.46-.5,1.59,1.59,0,0,0,.6-1.28,1.58,1.58,0,0,0-.58-1.31,2.31,2.31,0,0,0-1.49-.46H12.37v3.55Zm-.3-5.92A5,5,0,0,1,18,7.37a4,4,0,0,1,1.19,3A4.15,4.15,0,0,1,18,13.29a3.88,3.88,0,0,1-3,1.23H12.37v4.14H10V6.24Z"/>
      </g>
    </g>
  </g>
</svg>
